<svg width="20" height="20" viewBox="0 0 20 20" fill="none" xmlns="http://www.w3.org/2000/svg">
<path d="M10 0.400024C4.69802 0.400024 0.400024 4.69802 0.400024 10C0.400024 15.302 4.69802 19.6 10 19.6C15.302 19.6 19.6 15.302 19.6 10C19.6 4.69802 15.302 0.400024 10 0.400024ZM10.657 12.275C10.041 12.228 9.78302 11.923 9.30102 11.631C9.03602 13.022 8.71202 14.356 7.75202 15.053C7.45502 12.949 8.18602 11.371 8.52602 9.69403C7.94702 8.71902 8.59503 6.75802 9.81703 7.24002C11.32 7.83602 8.51502 10.865 10.398 11.244C12.364 11.638 13.167 7.83202 11.948 6.59602C10.186 4.80902 6.82102 6.55502 7.23502 9.11302C7.33502 9.73802 7.98202 9.92803 7.49302 10.791C6.36602 10.541 6.02902 9.65203 6.07302 8.46702C6.14202 6.52702 7.81603 5.16802 9.49403 4.98102C11.617 4.74502 13.609 5.76002 13.885 7.75802C14.194 10.012 12.926 12.451 10.657 12.275Z" fill="black"/>
</svg>
